<svg width="24" height="24" viewBox="0 0 24 24" fill="none" xmlns="http://www.w3.org/2000/svg">
<path d="M9.489 0.00300012L10.218 0H13.782L14.512 0.00300012L15.426 0.0130005L15.859 0.0200008L16.277 0.0310013L16.68 0.0450019L17.068 0.0610025L17.442 0.0820034L17.802 0.107004L18.147 0.137006L18.48 0.170007C20.22 0.366015 21.413 0.786033 22.313 1.68607C23.213 2.58611 23.633 3.77816 23.829 5.51923L23.863 5.85224L23.892 6.19826L23.917 6.55827L23.937 6.93129L23.962 7.51931L23.974 7.92933L23.987 8.57336L23.996 9.48839L24 10.4684L23.999 13.7816L23.996 14.5116L23.986 15.4256L23.979 15.8587L23.968 16.2767L23.954 16.6797L23.938 17.0677L23.917 17.4417L23.892 17.8017L23.862 18.1468L23.829 18.4798C23.633 20.2198 23.213 21.4129 22.313 22.3129C21.413 23.213 20.221 23.633 18.48 23.829L18.147 23.863L17.801 23.892L17.441 23.917L17.068 23.937L16.48 23.962L16.07 23.974L15.426 23.987L14.511 23.996L13.531 24L10.218 23.999L9.488 23.996L8.574 23.986L8.141 23.979L7.723 23.968L7.32 23.954L6.932 23.938L6.558 23.917L6.198 23.892L5.853 23.862L5.52 23.829C3.78 23.633 2.587 23.213 1.687 22.3129C0.787 21.4129 0.367 20.2208 0.171 18.4798L0.137 18.1468L0.108 17.8007L0.083 17.4407L0.063 17.0677L0.038 16.4797L0.026 16.0697L0.013 15.4256L0.004 14.5106L0 13.5306L0.001 10.2174L0.004 9.48739L0.014 8.57336L0.021 8.14034L0.032 7.72232L0.046 7.3193L0.062 6.93129L0.083 6.55727L0.108 6.19726L0.138 5.85224L0.171 5.51923C0.367 3.77916 0.787 2.58611 1.687 1.68607C2.587 0.786033 3.779 0.366015 5.52 0.170007L5.853 0.136006L6.199 0.107004L6.559 0.0820034L6.932 0.0620026L7.52 0.0370015L7.93 0.025001L8.574 0.0120005L9.489 0.00300012V0.00300012ZM6.79 7.2993H4.05C4.18 13.5396 7.3 17.2897 12.77 17.2897H13.08V13.7196C15.09 13.9196 16.61 15.3896 17.22 17.2897H20.06C19.28 14.4496 17.23 12.8795 15.95 12.2795C17.23 11.5395 19.03 9.73941 19.46 7.2993H16.88C16.32 9.27939 14.66 11.0795 13.08 11.2495V7.2993H10.5V14.2196C8.9 13.8196 6.88 11.8795 6.79 7.2993V7.2993Z" fill="white"/>
</svg>
