<svg width="24" height="24" viewBox="0 0 24 24" fill="none" xmlns="http://www.w3.org/2000/svg">
<path d="M23.1574 13.2981L18.7927 15.5161L14.8781 12.0231L18.8239 8.50202L23.1574 10.704C23.4131 10.8339 23.6259 11.0224 23.7739 11.2503C23.922 11.4782 24 11.7372 24 12.0011C24 12.2649 23.922 12.524 23.7739 12.7518C23.6259 12.9797 23.4131 13.1682 23.1574 13.2981ZM0.124737 0.923946C0.042088 1.10411 -0.000294672 1.2971 1.54201e-06 1.49195V22.5092C1.54201e-06 22.7262 0.0501185 22.9282 0.138102 23.1092L12.5615 12.0221L0.124737 0.923946ZM13.7198 10.989L17.3483 7.75101L2.47801 0.194938C2.15927 0.0304722 1.78806 -0.0325981 1.42444 0.0159366L13.7198 10.989ZM13.7198 13.0561L1.46899 23.9892C1.80087 24.0252 2.15058 23.9732 2.47801 23.8062L17.3171 16.2661L13.7198 13.0561Z" fill="white"/>
</svg>
